<?xml version="1.0" standalone="no"?>
<!DOCTYPE svg PUBLIC "-//W3C//DTD SVG 20010904//EN"
 "http://www.w3.org/TR/2001/REC-SVG-20010904/DTD/svg10.dtd">
<svg version="1.0" xmlns="http://www.w3.org/2000/svg"
 width="1000.000000pt" height="1000.000000pt" viewBox="0 0 1000.000000 1000.000000"
 preserveAspectRatio="xMidYMid meet">
<metadata>
Created by potrace 1.11, written by Peter Selinger 2001-2013
</metadata>
<g transform="translate(0.000000,1000.000000) scale(0.100000,-0.100000)"
fill="#000000" stroke="none">
<path d="M9547 9954 c-1 -1 -69 -5 -152 -8 -82 -4 -166 -9 -185 -10 -19 -2
-78 -7 -130 -10 -52 -4 -106 -8 -120 -10 -14 -3 -56 -7 -93 -11 -37 -3 -76 -8
-85 -10 -9 -1 -49 -6 -87 -9 -39 -4 -80 -8 -90 -10 -43 -8 -102 -17 -145 -22
-63 -7 -101 -12 -130 -18 -14 -3 -41 -7 -60 -10 -19 -3 -56 -9 -82 -14 -27 -5
-48 -7 -48 -4 0 2 -6 -1 -13 -7 -8 -6 -16 -9 -18 -7 -2 2 -24 0 -49 -5 -25 -6
-58 -12 -75 -15 -41 -6 -70 -12 -70 -14 0 -1 -11 -3 -25 -6 -37 -6 -326 -72
-395 -90 -70 -18 -129 -33 -132 -34 -2 0 -4 0 -5 -1 -2 0 -10 -2 -18 -4 -8 -2
-39 -11 -69 -19 -30 -8 -58 -13 -63 -10 -4 3 -8 0 -8 -5 0 -6 -6 -11 -14 -11
-7 0 -42 -9 -77 -21 -35 -11 -74 -22 -86 -25 -12 -2 -35 -9 -50 -15 -31 -12
-62 -20 -80 -21 -7 -1 -13 -4 -13 -8 0 -3 -8 -6 -17 -7 -10 -1 -29 -6 -43 -11
-14 -5 -28 -10 -32 -11 -15 -4 -154 -52 -173 -60 -11 -5 -49 -19 -85 -31 -36
-12 -74 -26 -85 -30 -105 -42 -332 -132 -340 -134 -5 -1 -36 -15 -69 -29 -32
-15 -65 -27 -72 -27 -8 0 -14 -4 -14 -10 0 -5 -4 -10 -9 -10 -5 0 -20 -4 -33
-9 -13 -5 -25 -8 -28 -7 -3 0 -21 -9 -41 -22 -20 -12 -43 -22 -52 -22 -8 0
-17 -4 -19 -8 -1 -4 -32 -20 -68 -36 -107 -47 -445 -219 -448 -228 -2 -4 -12
-8 -22 -8 -10 0 -21 -4 -24 -8 -3 -4 -31 -21 -63 -37 -32 -16 -60 -32 -63 -35
-3 -3 -18 -12 -35 -20 -16 -8 -65 -36 -108 -62 -43 -27 -80 -48 -82 -48 -5 0
-108 -63 -115 -70 -3 -3 -21 -14 -40 -24 -56 -31 -351 -223 -377 -246 -13 -11
-23 -17 -23 -14 0 3 -13 -5 -30 -18 -16 -12 -52 -39 -80 -58 -52 -36 -139 -98
-175 -126 -11 -8 -47 -35 -80 -60 -33 -25 -67 -50 -75 -57 -8 -7 -33 -26 -55
-42 -22 -16 -48 -36 -57 -45 -9 -8 -23 -20 -30 -25 -95 -74 -154 -121 -158
-126 -3 -3 -34 -30 -70 -60 -59 -48 -121 -103 -156 -136 -7 -7 -18 -13 -25
-13 -7 0 -9 -3 -6 -6 3 -4 -6 -16 -21 -28 -25 -20 -75 -65 -178 -162 -24 -23
-44 -41 -44 -39 0 3 -332 -332 -382 -385 -31 -34 -173 -190 -227 -249 -13 -14
-44 -51 -70 -80 -25 -30 -62 -73 -81 -95 -19 -22 -39 -46 -45 -54 -5 -7 -15
-18 -20 -25 -6 -7 -29 -35 -51 -62 -21 -28 -45 -57 -51 -65 -28 -33 -79 -98
-98 -124 -11 -16 -38 -52 -61 -80 -22 -28 -69 -91 -105 -141 -35 -49 -68 -94
-72 -100 -5 -5 -16 -22 -25 -36 -9 -15 -54 -81 -100 -148 -45 -66 -82 -125
-82 -130 0 -5 -4 -11 -9 -13 -5 -1 -48 -66 -95 -143 -47 -77 -89 -144 -93
-150 -4 -5 -15 -23 -23 -40 -8 -16 -23 -39 -32 -49 -10 -11 -18 -24 -18 -29 0
-5 -16 -36 -36 -68 -47 -78 -124 -219 -131 -241 -3 -10 -9 -18 -13 -18 -4 0
-11 -12 -15 -27 -3 -15 -10 -30 -14 -33 -4 -3 -24 -41 -45 -85 -21 -44 -43
-83 -48 -86 -5 -3 -9 -9 -8 -13 1 -4 -19 -48 -43 -99 -24 -51 -54 -114 -67
-142 -12 -27 -34 -74 -48 -104 -14 -29 -25 -59 -25 -67 0 -8 -4 -14 -8 -14 -4
0 -13 -15 -19 -34 -6 -19 -19 -52 -30 -73 -10 -21 -16 -41 -13 -45 2 -5 0 -8
-5 -8 -6 0 -12 -10 -16 -23 -3 -13 -13 -41 -23 -63 -9 -21 -17 -42 -17 -46 -1
-3 -4 -10 -8 -14 -5 -4 -8 -16 -8 -26 0 -10 -5 -18 -12 -18 -6 0 -9 -3 -6 -6
3 -3 -5 -33 -19 -67 -13 -34 -26 -66 -27 -72 -2 -5 -8 -21 -13 -35 -27 -65
-93 -260 -93 -274 0 -9 -5 -16 -10 -16 -6 0 -9 -3 -8 -7 3 -12 -13 -77 -22
-88 -9 -11 -25 -76 -22 -87 1 -5 -2 -8 -6 -8 -5 0 -9 -6 -9 -12 0 -7 -13 -53
-27 -103 -15 -49 -29 -97 -31 -105 -2 -8 -4 -15 -5 -15 -1 0 -3 -7 -5 -15 -2
-8 -23 -85 -45 -170 -23 -85 -43 -166 -46 -180 -3 -14 -9 -39 -15 -57 -5 -17
-12 -44 -15 -60 -5 -30 -41 -201 -51 -243 -3 -14 -7 -34 -9 -45 -2 -11 -5 -33
-8 -50 -3 -16 -8 -41 -10 -55 -3 -14 -5 -25 -6 -25 -1 0 -3 -11 -5 -25 -6 -43
-14 -94 -20 -120 -5 -26 -16 -91 -21 -125 -1 -11 -3 -20 -4 -20 -1 0 -3 -13
-4 -30 -2 -16 -7 -55 -11 -85 -4 -30 -9 -66 -11 -80 -2 -14 -5 -41 -8 -60 -2
-19 -7 -62 -11 -95 -4 -33 -8 -73 -10 -90 -2 -16 -6 -58 -9 -91 -3 -34 -7 -83
-10 -110 -5 -49 -13 -159 -22 -304 -2 -41 -7 -198 -10 -347 l-6 -273 2754 0
2754 0 3 153 c3 197 10 304 26 427 9 69 18 145 21 170 1 14 3 25 4 25 2 0 5
20 16 85 4 25 8 50 10 55 1 6 5 28 9 50 4 22 9 43 11 46 2 4 6 24 10 45 3 20
10 48 15 62 5 14 8 27 5 29 -2 3 2 20 10 39 8 19 14 36 14 39 -1 10 12 60 19
80 5 11 28 81 51 155 24 74 51 153 60 175 52 121 68 164 63 169 -4 3 -1 6 5 6
7 0 12 4 12 10 0 19 75 175 150 315 24 44 51 94 60 111 28 53 134 219 142 222
4 2 8 8 8 14 0 13 69 112 82 116 4 2 8 8 8 14 0 8 32 55 65 95 6 7 15 18 20
25 216 278 478 549 711 733 20 17 42 35 48 40 52 50 378 277 419 291 9 3 17
10 17 15 0 5 4 9 9 9 6 0 40 18 78 41 37 22 75 45 83 50 46 27 350 173 435
209 92 39 277 108 300 113 6 2 16 6 23 10 6 5 12 6 12 3 0 -3 15 1 34 9 18 8
36 11 40 8 3 -4 6 0 6 7 0 7 3 11 6 7 3 -3 18 -1 33 5 26 10 42 14 90 24 13 3
32 9 41 14 10 5 20 7 23 4 3 -3 12 -2 19 2 7 5 22 10 33 12 30 5 50 10 50 12
0 1 11 3 25 5 26 4 60 11 88 19 9 3 33 7 52 10 40 7 79 13 130 22 39 7 52 9
130 18 30 4 71 9 90 11 146 17 233 23 428 25 l142 2 0 2735 0 2735 -226 -4
c-124 -1 -226 -3 -227 -4z"/>
</g>
</svg>
